# xmcd
#
# Track frame offsets:
#	150
#	10957
#	24517
#	40967
#	54280
#	66960
#	80000
#	93215
#	104400
#	120685
#	132910
#	141315
#	156632
#	169092
#	179797
#	191672
#	203512
#	216010
#	227660
#	238412
#	251822
#	261575
#	271065
#
# Disc length: 3709 seconds
#
# Revision: 1
# Processed by: cddbd v1.5.2PL0 Copyright (c) Steve Scherf et al.
# Submitted via: audiograbber 1.83.01
#
DISCID=5a0e7b17
DTITLE=Slim Whitman - Reader's Digest Country Classics [Disc 2]
DYEAR=1995
DGENRE=Country
TTITLE0=Serenade
TTITLE1=I'm A Fool
TTITLE2=Somewhere My Love
TTITLE3=Yesterday's Roses
TTITLE4=I Pretend
TTITLE5=Stranger On The Shore
TTITLE6=Tammy
TTITLE7=Edelweiss
TTITLE8=Rockin' Alone (In An Old Rockin' Chair)
TTITLE9=My Special Angel
TTITLE10=You Belong To My Heart
TTITLE11=Too Young
TTITLE12=Mr. Ting-A-Ling (Steel Guitar Man)
TTITLE13=My Heart Cries For You
TTITLE14=I'll Never Find Another You
TTITLE15=Secret Love
TTITLE16=My Heart Has A Mind Of Its Own
TTITLE17=Roses Are Red (My Love)
TTITLE18=It's All In The Game
TTITLE19=Cara Mia
TTITLE20=I Remember You
TTITLE21=It's A Small World
TTITLE22=Don't Let The Stars Get In Your Eyes
EXTD=YEAR: 1995
EXTT0=
EXTT1=
EXTT2=
EXTT3=
EXTT4=
EXTT5=
EXTT6=
EXTT7=
EXTT8=
EXTT9=
EXTT10=
EXTT11=
EXTT12=
EXTT13=
EXTT14=
EXTT15=
EXTT16=
EXTT17=
EXTT18=
EXTT19=
EXTT20=
EXTT21=
EXTT22=
PLAYORDER=
